<?xml version="1.0" standalone="no"?>
<!DOCTYPE svg PUBLIC "-//W3C//DTD SVG 20010904//EN"
 "http://www.w3.org/TR/2001/REC-SVG-20010904/DTD/svg10.dtd">
<svg version="1.0" xmlns="http://www.w3.org/2000/svg"
 width="1024.000000pt" height="1024.000000pt" viewBox="0 0 1024.000000 1024.000000"
 preserveAspectRatio="xMidYMid meet">
<metadata>
Created by potrace 1.14, written by Peter Selinger 2001-2017
</metadata>
<g transform="translate(0.000000,1024.000000) scale(0.100000,-0.100000)"
fill="#000000" stroke="none">
<path d="M3775 9133 c-16 -2 -64 -11 -105 -19 -41 -8 -84 -16 -95 -18 -171
-34 -481 -167 -723 -310 -94 -56 -351 -232 -407 -278 -11 -9 -47 -38 -80 -65
-226 -180 -564 -511 -765 -748 -23 -27 -52 -61 -64 -75 -11 -14 -39 -47 -61
-75 -123 -153 -197 -250 -238 -310 -22 -33 -43 -62 -47 -65 -12 -9 -160 -231
-160 -240 0 -5 -4 -10 -8 -12 -5 -1 -28 -34 -51 -73 -23 -38 -68 -113 -100
-165 -98 -162 -180 -312 -280 -515 -79 -160 -91 -187 -150 -323 -188 -431
-374 -1047 -406 -1343 -4 -30 -8 -60 -10 -67 -12 -37 -20 -191 -19 -382 2
-318 43 -517 149 -725 146 -285 379 -453 701 -505 131 -21 344 -17 485 10 30
6 68 13 84 16 17 3 57 12 90 21 33 8 65 16 70 17 18 4 159 47 180 55 11 5 65
26 120 46 151 58 405 177 575 270 82 46 363 216 495 301 495 318 1055 564
1410 619 11 2 36 6 55 9 239 39 489 13 669 -70 130 -60 276 -188 356 -314 73
-113 142 -276 173 -410 39 -165 48 -225 68 -440 4 -42 3 -426 0 -490 -2 -25
-7 -92 -12 -150 -13 -167 -8 -262 20 -405 7 -34 46 -145 68 -194 65 -138 214
-312 343 -398 161 -108 378 -182 580 -200 127 -11 320 -6 435 11 77 12 207 39
266 57 38 11 76 22 84 24 30 7 118 38 227 81 355 141 751 384 1073 659 74 63
359 354 426 435 403 485 691 1056 864 1715 39 148 90 388 106 495 4 30 8 57 9
60 1 3 5 32 9 65 5 33 10 67 11 76 2 9 6 52 10 95 4 43 9 88 11 99 25 127 24
947 -1 1095 -2 14 -6 50 -9 80 -6 67 -24 214 -41 330 -5 37 -15 91 -20 120 -9
43 -15 73 -26 135 -8 49 -34 164 -65 288 -2 9 -6 25 -8 35 -62 266 -162 548
-263 747 -14 28 -33 64 -41 80 -32 62 -136 207 -198 274 -172 186 -377 280
-615 283 -57 1 -124 -2 -149 -6 -25 -4 -58 -10 -75 -12 -16 -3 -48 -10 -70
-16 -22 -5 -44 -11 -50 -13 -64 -14 -228 -73 -315 -112 -197 -89 -369 -181
-760 -408 -255 -149 -270 -157 -411 -236 -116 -64 -307 -159 -399 -198 -41
-18 -84 -36 -95 -41 -25 -11 -197 -68 -227 -75 -160 -36 -220 -43 -353 -40
-259 5 -420 77 -615 274 -172 172 -278 360 -440 776 -23 61 -57 137 -73 170
-66 128 -182 286 -266 360 -19 16 -39 35 -45 41 -23 22 -136 94 -192 123 -62
31 -210 78 -279 88 -47 7 -297 11 -340 6z"/>
</g>
</svg>
